<?xml version="1.0" encoding="utf-8"?>
<!-- Generator: Adobe Illustrator 17.1.0, SVG Export Plug-In . SVG Version: 6.00 Build 0)  -->
<!DOCTYPE svg PUBLIC "-//W3C//DTD SVG 1.1//EN" "http://www.w3.org/Graphics/SVG/1.1/DTD/svg11.dtd">
<svg version="1.1" id="Layer_1" xmlns="http://www.w3.org/2000/svg" xmlns:xlink="http://www.w3.org/1999/xlink" x="0px" y="0px"
	 viewBox="15.4 15.4 69.2 69.2" enable-background="new 15.4 15.4 69.2 69.2" xml:space="preserve">
<g>
	<path fill="#FFFFFF" stroke="#FFFFFF" stroke-miterlimit="10" d="M50,19.3C67,19.3,80.7,33,80.7,50S67,80.7,50,80.7
		C33,80.7,19.3,67,19.3,50S33,19.3,50,19.3 M50,15.4c-9.2,0-17.9,3.6-24.5,10.1S15.4,40.8,15.4,50S19,67.9,25.5,74.5
		C32.1,81,40.8,84.6,50,84.6S67.9,81,74.5,74.5C81,67.9,84.6,59.2,84.6,50S81,32.1,74.5,25.5C67.9,19,59.2,15.4,50,15.4L50,15.4z"/>
</g>
<polyline fill="#FFFFFF" stroke="#FFFFFF" stroke-width="3" stroke-linecap="round" points="50,25.8 50,50 60.8,60.8 "/>
</svg>
